
<svg xmlns="http://www.w3.org/2000/svg" version="1.1" xmlns:xlink="http://www.w3.org/1999/xlink" preserveAspectRatio="none" x="0px" y="0px" width="1280px" height="720px" viewBox="0 0 1280 720">
<defs/>

<g id="KFC_Leg">
<g id="Layer_26" transform="matrix( 1, 0, 0, 1, 715,354.65) ">
<g>
<g>
<g>
<path fill="#FF8669" stroke="none" d="
M 121 -124.6
Q 105.15 -117.55 98.65 -99.5 92 -81.75 97.2 -60.55 102.4 -38.75 102.4 -29.6 102.7 -16.5 98.65 -2.45 96.65 4.65 94.6 9 105.25 10 117.95 7.7 143.55 3.05 154.8 -13.45 163.45 -26.25 169 -54.85 174.1 -81.35 171.75 -91.1 166.7 -112.15 151.85 -122 136.95 -131.85 121 -124.6 Z"/>
</g>
</g>

<g>
<path stroke="#D26F56" stroke-width="8" stroke-linejoin="miter" stroke-linecap="butt" stroke-miterlimit="10" fill="none" d="
M 171.75 -91.1
Q 166.7 -112.15 151.85 -122 136.95 -131.85 121 -124.6 105.15 -117.55 98.65 -99.5 92 -81.75 97.2 -60.55 102.4 -38.75 102.4 -29.6 102.7 -16.5 98.65 -2.45 96.65 4.65 94.6 9 105.25 10 117.95 7.7 143.55 3.05 154.8 -13.45 163.45 -26.25 169 -54.85 174.1 -81.35 171.75 -91.1 Z"/>
</g>
</g>
</g>

<g id="Layer_24" transform="matrix( 1, 0, 0, 1, 715,354.65) ">
<g transform="matrix( -0.2877655029296875, -1.518157958984375, -1.518157958984375, 0.2877655029296875, 522.15,103.15) ">
<g>
<g>
<path fill="#FFF7C4" stroke="none" d="
M 18 163.55
L 22.3 173.35 57.9 157.7 53.55 147.9 18 163.55 Z"/>
</g>
</g>

<g transform="matrix( -0.120513916015625, -0.635833740234375, -0.635833740234375, 0.120513916015625, 128.5,319.55) ">
<path stroke="#FFDE74" stroke-width="8" stroke-linejoin="miter" stroke-linecap="butt" stroke-miterlimit="10" fill="none" d="
M 268.675486755371 122.88720474243165
L 282.20459518432614 64.41315917968751 266.07486724853516 60.629273986816415 252.56014709472657 119.17922744750976 268.675486755371 122.88720474243165 Z"/>
</g>
</g>
</g>

<g id="Layer_23" transform="matrix( 1, 0, 0, 1, 715,354.65) "/>

<g id="Layer_22" transform="matrix( 1, 0, 0, 1, 715,354.65) "/>

<g id="Layer_21" transform="matrix( 1, 0, 0, 1, 715,354.65) "/>

<g id="Layer_20" transform="matrix( 1, 0, 0, 1, 715,354.65) "/>

<g id="Layer_19" transform="matrix( 1, 0, 0, 1, 715,354.65) ">
<g>
<g>
<g>
<path fill="#FFF3A2" stroke="none" d="
M 217.2 -29
L 176.2 -30.8 174.75 3.1 215.75 4.85 217.2 -29 Z"/>
</g>
</g>

<g>
<path stroke="#FFDE74" stroke-width="8" stroke-linejoin="miter" stroke-linecap="butt" stroke-miterlimit="10" fill="none" d="
M 215.75 4.85
L 217.2 -29 176.2 -30.8 174.75 3.1 215.75 4.85 Z"/>
</g>
</g>
</g>

<g id="Layer_18" transform="matrix( 1, 0, 0, 1, 715,354.65) ">
<g transform="matrix( -1.2003631591796875, -0.973052978515625, -0.973052978515625, 1.2003631591796875, 476.3,-85.05) ">
<g>
<g>
<path fill="#FFBDBD" stroke="none" d="
M 32.3 152.85
L 50.5 179.55 81.4 166.4 77.25 135.45 32.3 152.85 Z"/>
</g>
</g>

<g transform="matrix( -0.502716064453125, -0.4075164794921875, -0.4075164794921875, 0.502716064453125, 204.75,236.85) ">
<path stroke="#000000" stroke-width="8" stroke-linejoin="miter" stroke-linecap="round" stroke-miterlimit="10" fill="none" d="
M 216.67442321777344 35.48391723632814
L 240.96999816894532 81.33602981567385 288.79712219238286 66.99589767456054 251.77192001342775 2.3708473205566207 216.67442321777344 35.48391723632814 Z"/>
</g>
</g>

<g transform="matrix( -1.2003631591796875, -0.973052978515625, -0.973052978515625, 1.2003631591796875, 480.25,-86.5) ">
<g transform="matrix( -0.502716064453125, -0.4075164794921875, -0.4075164794921875, 0.502716064453125, 206.15,239.2) ">
<path stroke="#FF5ACA" stroke-width="8" stroke-linejoin="miter" stroke-linecap="round" stroke-miterlimit="10" fill="none" d="
M 216.60858764648435 35.55251464843752
L 240.90416259765624 81.40462722778318 288.7312866210938 67.06449508666992 251.70608444213866 2.4394447326660043"/>
</g>
</g>
</g>

<g id="Layer_17" transform="matrix( 1, 0, 0, 1, 715,354.65) ">
<g>
<g>
<g>
<path fill="#FFBDBD" stroke="none" d="
M 178.3 -3.45
Q 172.5 -6.75 168.15 -9.9
L 124.85 -10.25 80.35 209.05 240.1 209.05 255.65 -4.5 224.1 -5.85 215.45 -0.8
Q 205.2 4.3 197.7 3.55 190.15 2.95 178.3 -3.45 Z"/>
</g>
</g>

<g>
<path stroke="#FF5ACA" stroke-width="8" stroke-linejoin="miter" stroke-linecap="butt" stroke-miterlimit="10" fill="none" d="
M 240.1 209.05
L 255.65 -4.5 224.1 -5.85 215.45 -0.8
Q 205.2 4.3 197.7 3.55 190.15 2.95 178.3 -3.45 172.5 -6.75 168.15 -9.9
L 124.85 -10.25 80.35 209.05 240.1 209.05 Z"/>
</g>
</g>
</g>

<g id="Layer_16" transform="matrix( 1, 0, 0, 1, 715,354.65) ">
<g transform="matrix( 0.994110107421875, 0.108367919921875, -0.108367919921875, 0.994110107421875, -6.65,-17.2) ">
<g>
<g>
<path fill="#FFBDBD" stroke="none" d="
M 99.7 71.3
L 144.25 45.3 135.9 -8.6 68.65 26.35 99.7 71.3 Z"/>
</g>
</g>
</g>

<g transform="matrix( -1.5437469482421875, -0.0682220458984375, -0.0682220458984375, 1.5437469482421875, 387.9,-210.45) ">
<g transform="matrix( -0.6464996337890625, -0.028564453125, -0.028564453125, 0.6464996337890625, 244.75,147.1) ">
<path stroke="#FF5ACA" stroke-width="8" stroke-linejoin="miter" stroke-linecap="round" stroke-miterlimit="10" fill="none" d="
M 129.35997924804684 -10.974552917480452
L 58.698355865478504 16.451279449462902 84.7240112304687 64.54564056396487 131.82477722167965 43.5030517578125"/>
</g>
</g>
</g>

<g id="Layer_15" transform="matrix( 1, 0, 0, 1, 715,354.65) ">
<g transform="matrix( -1.5437469482421875, -0.0682220458984375, -0.0682220458984375, 1.5437469482421875, 387.9,-210.45) ">
<g>
<g>
<path fill="#FFF7C4" stroke="none" d="
M 178.15 77.25
Q 181.55 51.25 165.65 30.45 149.7 9.6 123.7 6.2 97.7 2.75 76.85 18.7 56.05 34.65 52.6 60.65 49.2 86.65 65.15 107.45 81.1 128.25 107.1 131.7 133.1 135.15 153.9 119.2 174.7 103.25 178.15 77.25 Z"/>
</g>
</g>

<g transform="matrix( -0.6464996337890625, -0.028564453125, -0.028564453125, 0.6464996337890625, 244.75,147.1) ">
<path stroke="#FFDE74" stroke-width="8" stroke-linejoin="miter" stroke-linecap="butt" stroke-miterlimit="10" fill="none" d="
M 213.5798583984375 -14.445108032226557
Q 253.95264511108397 -17.997261810302717 279.99442749023433 -49.01905670166013 306.0362098693847 -80.04085159301755 302.5612434387207 -120.41022720336913 299.0090896606445 -160.78301391601562 267.9872947692871 -186.824796295166 236.88831253051754 -212.8699897766113 196.51552581787107 -209.31783599853514 156.14615020751953 -205.84286956787108 130.10095672607417 -174.74388732910154 104.1363616943359 -143.71868133544922 107.61132812499994 -103.34930572509765 111.16348190307616 -62.97651901245115 142.18527679443358 -36.93473663330076 173.207071685791 -10.892954254150368 213.5798583984375 -14.445108032226557 Z"/>
</g>
</g>

<g transform="matrix( -1.5437469482421875, -0.0682220458984375, -0.0682220458984375, 1.5437469482421875, 387.9,-210.45) ">
<g>
<g>
<path fill="#FF8669" stroke="none" d="
M 168.75 58.6
Q 174.65 57.9 177.35 56.55 174.95 36.1 160 21 144.9 5.8 123.8 3 98.5 -0.35 77.6 14.85 56.4 30.2 53.1 55.05
L 55.45 56.3
Q 58.55 57.8 62.15 58.8 73.6 62.1 85.9 59.75 93.95 58.25 105.8 48.9 111.75 44.2 116.05 39.8
L 124.55 47.5
Q 134.35 55.5 141.05 56.85 157 60.05 168.75 58.6 Z"/>
</g>
</g>

<g transform="matrix( -0.6464996337890625, -0.028564453125, -0.028564453125, 0.6464996337890625, 244.75,147.1) ">
<path stroke="#D26F56" stroke-width="8" stroke-linejoin="miter" stroke-linecap="butt" stroke-miterlimit="10" fill="none" d="
M 251.21586990356442 -124.07139358520507
Q 270.043635559082 -119.60445709228513 287.9446708679199 -123.91767959594726 293.5703819274902 -125.21582717895507 298.45833053588865 -127.3199592590332
L 302.17141342163086 -129.0893211364746
Q 298.77236633300777 -167.6765655517578 267.09213943481444 -192.81938858032225 235.86480331420896 -217.71018295288084 196.57946166992187 -214.2646484375 163.81537933349605 -211.3816421508789 139.4678253173828 -188.94684143066405 115.35865554809567 -166.65618209838865 110.2585220336914 -135.2502899169922 114.33453903198239 -132.98203201293944 123.39489059448238 -131.4988990783691 141.43499526977536 -128.4588569641113 166.27606964111325 -132.31070556640623 176.7112739562988 -133.93767623901365 192.38577041625976 -145.61907577514648
L 206.0329292297363 -156.9260398864746
Q 212.3708641052246 -149.8401985168457 221.23551483154296 -142.1786666870117 238.89104003906246 -126.93620147705077 251.21586990356442 -124.07139358520507 Z"/>
</g>
</g>

<g id="Layer_1" transform="matrix( 1.5133209228515625, 0.3951263427734375, -0.4388580322265625, 1.705169677734375, 164.7,-102.75) ">
<g id="Layer_4" transform="matrix( 1, 0, 0, 1, 32.25,20.95) ">
<g>
<g>
<g>
<path fill="#FC6762" stroke="none" d="
M -11.25 11.65
Q -11.678125 10.9751953125 -12.3 10.35 -12.57890625 10.0646484375 -12.95 9.75 -13.1857421875 9.5431640625 -13.5 9.3 -14.3796875 8.667578125 -15.5 8.1 -15.880078125 7.91796875 -16.35 7.7 -17.7203125 7.15 -19.85 6.65 -20.0302734375 6.634765625 -20.25 6.6 -20.5705078125 6.537109375 -20.95 6.5 -21.0017578125 6.4939453125 -21.05 6.5 -23.6794921875 6.20078125 -27.7 6.85 -27.5693359375 7.2369140625 -27.45 7.55 -24.13359375 13.9544921875 -18.3 17.2 -16.1712890625 18.38046875 -13.9 19.1 -12.00625 19.746484375 -10.05 20.05 -9.3923828125 18.389453125 -9.6 16.1 -9.7689453125 13.8095703125 -11.25 11.65 Z"/>

<path fill="#680300" stroke="none" d="
M -15.25 -4.3
Q -15.6025390625 -4.3298828125 -15.95 -4.4 -22.2009765625 -5.66875 -27.9 -7.85 -29.8328125 1.119921875 -27.7 6.85 -23.6794921875 6.20078125 -21.05 6.5 -21.0017578125 6.4939453125 -20.95 6.5 -20.5705078125 6.537109375 -20.25 6.6 -20.0302734375 6.634765625 -19.85 6.65 -17.7203125 7.15 -16.35 7.7 -15.880078125 7.91796875 -15.5 8.1 -14.3796875 8.667578125 -13.5 9.3 -13.1857421875 9.5431640625 -12.95 9.75 -12.57890625 10.0646484375 -12.3 10.35 -11.678125 10.9751953125 -11.25 11.65 -9.7689453125 13.8095703125 -9.6 16.1 -9.3923828125 18.389453125 -10.05 20.05 -7.7564453125 20.463671875 -5.35 20.45 1.74140625 20.5111328125 7.7 17.9 13.6654296875 15.2931640625 19.1 10.7 17.801171875 1.831640625 23.2 -4.5 1.9150390625 -0.953515625 -15.25 -4.3 Z"/>
</g>
</g>

<g>
<path stroke="#000000" stroke-width="2.4" stroke-linejoin="miter" stroke-linecap="round" stroke-miterlimit="3" fill="none" d="
M -27.7 6.875
Q -29.8328125 1.119921875 -27.9 -7.85 -22.2009765625 -5.66875 -15.95 -4.4 -15.6025390625 -4.3298828125 -15.25 -4.275 1.9150390625 -0.953515625 23.2 -4.5
M 19.1 10.7
Q 13.6654296875 15.2931640625 7.7 17.9 1.74140625 20.5111328125 -5.35 20.475 -7.7564453125 20.463671875 -10.025 20.075 -12.00625 19.746484375 -13.875 19.125 -16.1712890625 18.38046875 -18.3 17.2 -24.13359375 13.9544921875 -27.425 7.575 -27.5693359375 7.2369140625 -27.7 6.875"/>
</g>
</g>
</g>

<g id="Layer_2" transform="matrix( 1, 0, 0, 1, 32.25,20.95) "/>
</g>

<g id="Layer_1" transform="matrix( 1.9142913818359375, 0.133575439453125, -0.133575439453125, 1.9142913818359375, 247.95,-93.1) ">
<g id="Layer_2">
<g>
<g>
<g>
<path fill="#000000" stroke="none" d="
M 2.4 -5.4
Q 1.43984375 -7.6 0 -7.6 -1.44609375 -7.6 -2.5 -5.4 -3.45546875 -3.15 -3.45 0 -3.45546875 3.15 -2.5 5.35 -1.44609375 7.6 0 7.6 1.43984375 7.6 2.4 5.35 3.44921875 3.15 3.45 0 3.44921875 -3.15 2.4 -5.4 Z"/>
</g>
</g>
</g>
</g>
</g>

<g id="Layer_1" transform="matrix( 1.9142913818359375, 0.133575439453125, -0.133575439453125, 1.9142913818359375, 188.1,-100.25) ">
<g id="Layer_2">
<g>
<g>
<g>
<path fill="#000000" stroke="none" d="
M -2.7 -7.6
Q -4.13984375 -7.6 -5.15 -5.4 -6.14921875 -3.15 -6.15 0 -6.14921875 3.15 -5.15 5.35 -4.13984375 7.6 -2.7 7.6 -1.25390625 7.6 -0.25 5.35 0.75546875 3.15 0.75 0 0.75546875 -3.15 -0.25 -5.4 -1.25390625 -7.6 -2.7 -7.6
M 3.7 -19.85
Q 5.6 -19.45 5.7 -20.25 5.85 -21.05 3.9 -21.5 -5.35 -23.35 -9.55 -14.85 -9.825 -14.3001953125 -9.65 -13.75 -9.4158203125 -13.1318359375 -8.85 -12.85 -8.301171875 -12.5744140625 -7.75 -12.8 -7.132421875 -12.98515625 -6.85 -13.55 -3.15 -21.25 3.7 -19.85 Z"/>
</g>
</g>
</g>
</g>
</g>
</g>

<g id="Layer_1" transform="matrix( 1, 0, 0, 1, 715,354.65) ">
<g>
<g>
<g>
<path fill="#FF0000" stroke="none" d="
M 273.75 181.3
Q 270 91.9 266.3 2.45 227.85 4.1 189.35 5.7 100 9.4 10.5 13.15 12.15 51.6 13.7 90.1 17.4 179.45 21.2 268.9 59.7 267.3 98.15 265.75 187.55 262 276.95 258.25 275.35 219.75 273.75 181.3
M 173.2 74.45
Q 173.65 74.4 174.15 74.4 175.7 74.35 177.1 74.75 177.25 74.8 177.25 75.25 181.25 75.05 185.25 74.9 185.75 74.85 186.25 74.85 187.75 74.8 189.25 74.75 189.75 74.7 190.25 74.7 191.25 74.65 192.25 74.6 192.7 74.6 193.2 74.6 193.7 74.55 194 74.8 194.25 75.05 194.25 75.55 196.25 75.4 198.3 75.35 198.8 75.3 199.3 75.3 199.8 75.3 200.3 75.25 200.8 75.25 201.3 75.2 202.25 75.2 203.05 75.55 203.25 75.65 203.3 76.15 204.25 76.1 205.3 76.05 205.8 76.05 206.3 76.05 206.8 76 207.3 76 207.8 76 208.05 76.2 208.35 76.45 208.35 76.95 208.85 76.95 209.35 76.9 209.85 76.9 210.35 76.9 210.85 76.85 211.15 77.05 211.3 77.35 211.35 77.85 211.85 77.8 212.4 77.8 212.9 77.8 213.1 78 213.4 78.25 213.4 78.75 213.9 78.75 214.15 78.95 214.45 79.2 214.45 79.7 214.95 80.2 215.6 80.45 216 80.6 216.5 80.6 217 80.55 217.25 80.8 217.5 81.05 217.6 81.55 218.05 81.55 218.3 81.75 218.6 82 218.6 82.5 219.15 83 219.45 83.55 219.65 83.95 219.7 84.45 220.2 84.45 220.45 84.7 220.7 84.95 220.7 85.45 221.2 85.4 221.45 85.7 221.7 85.9 221.7 86.4 221.75 86.9 221.75 87.4 222.25 87.35 222.55 87.65 222.8 87.85 222.85 88.35 222.85 88.9 222.85 89.35 222.9 89.85 222.9 90.35 223.4 90.35 223.65 90.55 223.9 90.8 223.95 91.3 223.95 91.8 224 92.3 224 92.8 224 93.3 224.05 93.8 224.05 94.3 224.55 94.3 224.85 94.55 225.05 94.75 225.1 95.25 225.1 95.75 225.15 96.25 225.15 96.75 225.2 97.3 225.3 98.75 225.35 100.25 225.35 100.75 225.35 101.25 225.9 101.75 226.2 102.35 226.45 102.7 226.45 103.2 226.45 103.7 226.5 104.2 226.5 104.7 226.5 105.25 226.6 107.7 226.75 110.2 226.8 110.7 226.8 111.2 228.45 111.45 228 114.15 227.95 114.7 227.95 115.2 228.05 117.15 228.1 119.15 228.1 119.65 228.15 120.15 228.15 120.65 228.2 121.15 228.65 131.65 229.05 142.15 229.1 142.65 229.1 143.15 229.2 145.15 229.25 147.15 229.3 147.65 229.3 148.15 229.35 149.65 229.4 151.1 229.45 151.6 229.5 152.1 229.5 152.65 229.25 152.9 229.05 153.2 228.5 153.2 228.7 155.65 228.8 158.15 228.8 158.65 228.8 159.15 228.85 159.65 228.85 160.2 228.9 160.7 228.9 161.2 228.9 161.7 228.75 162.1 228.45 162.7 228 163.2 228.05 164.7 228.1 166.15 228.1 166.65 228.15 167.15 228.15 167.7 228.15 168.2 228.2 168.7 228.2 169.2 228.2 169.7 228 169.95 227.8 170.25 227.25 170.25 227.25 170.75 227.3 171.25 227.35 171.75 227.35 172.25 227.4 172.7 227.4 173.2 227.45 173.7 227.15 174 226.95 174.2 226.45 174.3 226.45 174.8 226.5 175.3 226.5 175.8 226.5 176.3 226.55 176.8 226.3 177 226.05 177.3 225.55 177.3 225.6 177.8 225.6 178.3 225.6 178.8 225.35 179.1 225.15 179.35 224.65 179.35 224.65 179.85 224.4 180.15 224.2 180.35 223.7 180.4 223.7 180.95 223.45 181.15 223.2 181.45 222.65 181.45 222.75 181.95 222.75 182.4 222.8 182.9 222.5 183.15 222.3 183.45 221.85 183.45 221.85 183.95 221.6 184.25 221.35 184.45 220.85 184.5 220.35 184.5 220 184.75 219.35 185.05 218.9 185.55 218.9 186.1 218.7 186.35 218.4 186.65 217.9 186.65 217.4 186.65 216.9 186.7 216.95 187.2 216.75 187.4 216.45 187.7 215.95 187.7 216 188.2 215.75 188.5 215.5 188.75 215 188.75 214.5 188.8 214 188.8 213.5 188.8 213.05 188.85 213.1 189.35 212.8 189.6 212.6 189.85 212.1 189.85 211.6 189.95 211.1 189.95 210.6 190 210.05 190 209.05 190.05 208.05 190.05 208.05 190.55 207.85 190.65 207.1 191.1 206.1 191.15 205.6 191.15 205.1 191.2 204.15 191.2 203.15 191.25 202.65 191.3 202.1 191.3 200.1 191.4 198.1 191.5 198.15 192 198 192.05 196.65 192.55 195.2 192.6 194.7 192.65 194.15 192.65 192.65 192.7 191.15 192.75 190.65 192.8 190.15 192.8 185.7 193.05 181.2 193.2 181.2 193.7 181 193.8 180.2 194.25 179.2 194.25 178.75 194.3 178.2 194.3 175.25 194.4 172.25 194.6 171.75 194.6 171.25 194.6 166.75 194.8 162.2 194.95 161.7 195 161.2 195 145.75 195.65 130.25 196.35 129.75 196.35 129.25 196.35 126.8 196.45 124.3 196.55 123.8 196.6 123.25 196.6 119.8 196.7 116.25 196.85 115.75 196.95 115.3 197.05 112.05 197.75 111.25 196.1 110.75 196.1 110.25 196.15 105.75 196.3 101.3 196.5 100.75 196.5 100.25 196.5 98.75 196.65 97.25 196.7 96.75 196.7 96.25 196.85 94.15 197.4 94.2 195.8 93.65 195.8 93.15 195.85 91.2 195.95 89.2 196.05 88.75 196.05 88.25 196.1 87.25 196.1 86.25 196.15 85.7 196.15 85.3 196 84.65 195.7 84.15 195.25 83.65 195.25 83.2 195.25 82.2 195.3 81.2 195.4 80.7 195.4 80.2 195.45 79.7 195.45 79.4 195.2 79.15 194.95 79.1 194.45 78.6 194.5 78.1 194.5 77.6 194.55 77.4 194.25 77.1 194.05 77.1 193.5 76.6 193.55 76.1 193.6 75.6 193.6 75.3 193.35 75.05 193.15 75.05 192.65 74.55 192.65 74.05 192.65 73.6 192.7 73.3 192.4 73.1 192.2 73 191.7 72.5 191.75 72.15 191.5 71.5 191.25 71 190.8 70.5 190.8 70.25 190.55 69.95 190.3 69.95 189.8 69.45 189.85 69.15 189.6 68.95 189.3 68.9 188.85 68.9 188.35 68.65 188 68.35 187.4 67.85 186.9 67.35 186.95 67.05 186.7 66.75 186.45 66.75 185.95 66.25 185.95 66 185.75 65.75 185.5 65.7 185 65.7 184.5 65.7 184 65.2 184 64.9 183.75 64.65 183.55 64.65 183.05 64.6 182.55 64.6 182.05 64.6 181.55 64.55 181.05 64.05 181.05 63.8 180.8 63.55 180.55 63.5 180.1 63.45 179.6 63.5 179.1 63.4 178.6 63.4 178.1 63.4 177.6 63.35 177.1 62.9 177.1 62.7 176.9 62.4 176.6 62.4 176.1 62.35 175.6 62.35 175.1 62.3 174.6 62.3 174.1 62.3 173.6 62.25 173.1 62.2 171.65 62.15 170.15 61.65 170.15 61.5 170 61.05 169.15 61.05 168.15 61 167.65 61 167.15 60.95 166.7 60.95 166.2 60.95 165.7 60.9 165.2 60.8 162.7 60.7 160.2 60.2 160.2 59.95 160 59.7 159.75 59.7 159.25 59.65 158.75 59.65 158.25 59.6 156.75 59.5 155.25 59.45 154.75 59.45 154.2 59.35 152.25 59.3 150.25 59.3 149.75 59.25 149.25 58.9 141.25 58.55 133.3 58.55 132.8 58.5 132.3 58.4 129.75 58.3 127.25 58.25 126.75 58.25 126.25 58.15 124.3 58.1 122.25 58.05 121.75 58.05 121.25 58 119.75 57.95 118.25 58.45 118.25 58.95 118.2 58.9 117.7 58.9 117.2 58.8 114.75 58.7 112.25 58.7 111.75 58.65 111.25 58.65 110.75 58.55 110.25 58.55 109.75 58.55 109.25 58.5 108.75 58.5 108.2 59 108.15 59.5 108.15 59.5 107.65 59.45 107.15 59.4 105.7 59.35 104.2 59.3 103.7 59.3 103.2 59.3 102.7 59.25 102.2 59.25 101.7 59.25 101.15 59.75 101.15 60.25 101.15 60.2 100.65 60.2 100.15 60.15 99.65 60.15 99.15 60.15 98.65 60.1 98.15 60.1 97.65 60.1 97.15 60.55 97.1 61.05 97.1 61.05 96.6 61.05 96.15 61 95.65 61 95.15 61 94.65 60.95 94.15 61.45 94.1 61.95 94.05 61.95 93.55 61.9 93.05 61.9 92.55 61.9 92.05 62.4 92.05 62.9 92.05 62.85 91.55 62.85 91.05 63.3 91 63.8 91 63.75 90.5 63.75 90 64.25 90 64.45 89.7 64.75 89.45 64.7 88.95 64.7 88.4 64.65 87.9 65.15 87.9 65.65 87.9 65.65 87.4 65.65 86.9 66.15 86.85 66.65 86.85 67.1 86.35 67.75 86.05 68.1 85.85 68.6 85.8 68.55 85.3 68.55 84.8 69.05 84.8 69.55 84.8 69.55 84.3 69.5 83.8 70 83.75 70.5 83.75 71 83.65 71.5 83.65 71.5 83.15 71.45 82.65 71.9 82.65 72.4 82.6 72.95 82.6 73.45 82.6 73.95 82.55 74.45 82.55 74.45 82.05 74.45 81.55 74.95 81.55 75.45 81.5 75.9 81.5 76.4 81.45 77.4 81.45 78.4 81.4 78.9 81.35 79.4 81.35 79.4 80.85 79.4 80.3 79.9 80.3 80.4 80.25 80.85 80.25 81.4 80.25 81.85 80.2 82.35 80.2 82.85 80.15 83.35 80.15 85.35 80.1 87.35 80 87.85 80 88.35 79.95 88.35 79.45 88.3 78.95 89.35 78.95 90.3 78.9 90.8 78.85 91.3 78.85 92.8 78.75 94.3 78.7 94.8 78.65 95.3 78.65 95.8 78.65 96.3 78.6 100.3 78.45 104.3 78.3 104.85 78.3 105.35 78.25 105.25 77.75 105.25 77.2 107.8 77.15 110.25 77.05 110.75 77 111.25 77 114.8 76.85 118.25 76.75 118.75 76.65 119.25 76.65 121.75 76.55 124.25 76.45 124.75 76.45 125.25 76.4 140.75 75.75 156.2 75.15 156.7 75.1 157.2 75.1 161.75 74.95 166.2 74.7 166.7 74.7 167.2 74.65 170.25 74.55 173.2 74.45
M 165.85 132.45
Q 165.6 132.3 165.6 131.8 165.1 131.85 164.6 131.85 164.1 131.85 163.8 131.6 163.6 131.4 163.55 130.9 163 130.9 162.8 130.65 162.5 130.45 162.5 129.95 162 129.95 161.5 129.95 161 130 160.75 129.7 160.5 129.5 160.5 129 160 129 159.5 129.05 159 129.05 158.7 128.8 158.5 128.6 158.45 128.1 157.95 128.1 157.45 128.1 156.95 128.15 156.7 127.9 156.4 127.65 156.4 127.15 155.9 127.2 155.65 126.9 155.35 126.7 155.35 126.2 154.85 126.2 154.35 126.25 153.85 126.25 153.55 126 153.35 125.8 153.3 125.3 152.8 125.3 152.3 125.3 151.8 125.35 151.55 125.05 151.3 124.85 151.3 124.4 150.8 124.45 150.3 124.45 149.8 124.45 149.55 124.2 149.25 124 149.25 123.5 148.75 123.5 148.5 123.25 148.25 123 148.2 122.55 147.7 122.55 147.2 122.55 146.7 122.6 146.45 122.3 146.2 122.1 146.15 121.6 145.65 121.6 145.2 121.65 144.65 121.65 144.4 121.4 144.1 121.2 144.1 120.7 143.6 120.7 143.1 120.7 142.6 120.75 142.35 120.45 142.05 120.25 142.05 119.75 141.55 119.8 141.05 119.8 140.6 119.8 140.3 119.55 140.1 119.35 140.05 118.85 139.55 118.85 139.3 118.6 139.05 118.4 139.05 117.9 138.5 117.9 138 117.9 137.5 117.95 137.25 117.65 136.95 117.45 136.95 116.95 136.45 116.95 135.95 117 135.45 117 135.15 116.8 134.95 116.6 134.9 116.1 134.4 116.1 133.9 116.1 133.4 116.15 133.15 115.85 132.9 115.65 132.9 115.15 132.4 115.2 132.1 114.9 131.8 114.7 131.8 114.2 131.3 114.2 130.85 114.25 130.35 114.25 130.1 114 129.85 113.8 129.8 113.3 129.3 113.3 128.8 113.3 128.3 113.35 128.05 113.05 127.8 112.85 127.8 112.35 127.3 112.35 126.8 112.4 126.25 112.4 125.75 112.45 126.75 135.95 127.7 159.4 127.75 159.9 127.75 160.4 128.25 160.35 128.75 160.35 129.25 160.35 129.75 160.3 129.75 159.8 129.7 159.3 130.2 159.3 130.7 159.3 131.2 159.25 131.7 159.25 131.7 158.7 131.65 158.2 132.15 158.15 132.65 158.15 133.15 158.15 133.65 158.1 133.65 157.6 133.65 157.1 134.15 157.1 134.65 157.1 134.6 156.6 134.6 156.1 135.1 156.05 135.55 156.05 136.05 156 136.6 156 136.55 155.5 136.55 155 137.05 155 137.55 154.95 138.05 154.95 138.55 154.95 138.5 154.45 138.5 153.9 139 153.85 139.5 153.85 140 153.85 140.5 153.8 140.5 153.35 140.45 152.85 140.95 152.85 141.45 152.8 141.45 152.3 141.4 151.8 141.9 151.8 142.4 151.8 142.9 151.75 143.4 151.75 143.4 151.25 143.4 150.75 143.9 150.75 144.35 150.7 144.85 150.7 145.35 150.65 145.3 150.15 145.3 149.6 145.8 149.6 146.3 149.6 146.8 149.55 147.35 149.55 147.3 149.05 147.3 148.55 147.8 148.55 148.3 148.5 148.8 148.5 149.3 148.45 149.3 148 149.25 147.5 149.75 147.45 150.25 147.45 150.25 146.95 150.2 146.45 150.7 146.4 151.2 146.4 151.7 146.4 152.2 146.35 152.2 145.8 152.15 145.3 152.65 145.3 153.1 145.3 153.6 145.25 154.1 145.25 154.1 144.75 154.1 144.25 154.6 144.2 155.1 144.2 155.6 144.2 156.1 144.15 156.05 143.65 156.05 143.15 156.55 143.15 157.1 143.15 157 142.65 157 142.2 157.5 142.15 158.05 142.15 158.55 142.15 159.05 142.1 159.05 141.55 159 141.05 159.5 141.05 160 141 160.5 141 161 141 161 140.5 160.95 140 161.45 139.95 161.9 139.95 162.4 139.95 162.9 139.9 162.9 139.4 162.9 138.9 163.35 138.9 163.85 138.85 163.85 138.35 163.85 137.85 164.35 137.85 164.85 137.85 165.35 137.8 165.85 137.8 165.8 137.3 165.8 136.75 166.3 136.75 166.8 136.7 167.3 136.7 167.8 136.65 167.75 136.2 167.75 135.7 168.25 135.65 168.8 135.65 169.3 135.6 169.8 135.6 169.8 135.1 169.75 134.6 169.75 134.1 169.7 133.6 169.15 133.6 168.65 133.65 168.15 133.65 167.95 133.4 167.65 133.2 167.65 132.7 167.15 132.7 166.65 132.7 166.15 132.75 165.85 132.45 Z"/>

<path fill="#FFA1A1" stroke="none" d="
M 130.15 195.8
Q 127.25 195.45 124.2 195.55 124.2 196.05 124.3 196.55 126.8 196.45 129.25 196.35 129.75 196.35 130.25 196.35 130.2 195.8 130.15 195.8 Z"/>

<path fill="#FF7D7D" stroke="none" d="
M 116.2 195.85
Q 116.25 196.35 116.25 196.85 119.8 196.7 123.25 196.6 123.8 196.6 124.3 196.55 124.2 196.05 124.2 195.55 123.7 195.6 123.2 195.6 119.75 195.7 116.2 195.85 Z"/>

<path fill="#FF4A4A" stroke="none" d="
M 115.2 195.9
Q 113.2 196.05 111.25 196.1 112.05 197.75 115.3 197.05 115.75 196.95 116.25 196.85 116.25 196.35 116.2 195.85 115.7 195.9 115.2 195.9 Z"/>

<path fill="#FF9595" stroke="none" d="
M 101.1 196
Q 99.2 195.55 97.2 195.7 97.25 196.2 97.25 196.7 98.75 196.65 100.25 196.5 100.75 196.5 101.3 196.5 101.25 196 101.1 196
M 59.1 122.2
Q 58.6 122.25 58.1 122.25 58.15 124.3 58.25 126.25 58.25 126.75 58.3 127.25 58.8 127.2 59.3 127.2 59.3 126.7 59.3 126.2 59.15 124.25 59.1 122.2
M 191.15 191.75
Q 191.15 192.25 191.15 192.75 192.65 192.7 194.15 192.65 194.7 192.65 195.2 192.6 195.2 192.1 195.15 191.6 194.65 191.65 194.1 191.65 192.65 191.7 191.15 191.75 Z"/>

<path fill="#FF5E5E" stroke="none" d="
M 94.2 195.8
Q 94.15 197.4 96.25 196.85 96.75 196.7 97.25 196.7 97.25 196.2 97.2 195.7 96.7 195.7 96.2 195.7 95.2 195.75 94.2 195.8
M 195.2 192.6
Q 196.65 192.55 198 192.05 198.15 192 198.1 191.5 197.6 191.5 197.1 191.55 196.1 191.6 195.15 191.6 195.2 192.1 195.2 192.6
M 165.8 136.75
Q 165.8 137.3 165.85 137.8 166.35 137.8 166.6 137.5 166.8 137.2 166.8 136.7 166.3 136.75 165.8 136.75
M 166.35 132
Q 166.1 131.8 165.6 131.8 165.6 132.3 165.85 132.45 166.15 132.75 166.65 132.7 166.6 132.2 166.35 132 Z"/>

<path fill="#FF9C9C" stroke="none" d="
M 88.25 196.1
Q 88.75 196.05 89.2 196.05 89.2 195.55 89.05 195.5 87.7 195.1 86.15 195.15 86.15 195.65 86.25 196.15 87.25 196.1 88.25 196.1 Z"/>

<path fill="#FF5050" stroke="none" d="
M 84.15 195.25
Q 84.65 195.7 85.3 196 85.7 196.15 86.25 196.15 86.15 195.65 86.15 195.15 85.65 195.2 85.15 195.2 84.65 195.2 84.15 195.25
M 207.85 190.65
Q 208.05 190.55 208.05 190.05 207.55 190.1 207.05 190.1 206.55 190.15 206.05 190.15 206.1 190.65 206.1 191.15 207.1 191.1 207.85 190.65 Z"/>

<path fill="#FF9898" stroke="none" d="
M 77.1 193.5
Q 77.1 194.05 77.4 194.25 77.6 194.55 78.1 194.5 78.1 194 77.85 193.75 77.6 193.5 77.1 193.5
M 228.85 160.2
Q 228.85 159.65 228.8 159.15 228.3 159.15 227.8 159.25 227.85 159.75 227.85 160.25 227.9 160.75 227.9 161.25 228.4 161.2 228.9 161.2 228.9 160.7 228.85 160.2
M 162.2 194.95
Q 166.75 194.8 171.25 194.6 171.75 194.6 172.25 194.6 172.2 194.1 172.2 193.6 171.7 193.6 171.15 193.6 166.7 193.8 162.15 193.95 162.2 194.45 162.2 194.95
M 186.25 74.85
Q 186.65 76.55 189.35 75.85 189.75 75.7 190.3 75.7 190.3 75.2 190.25 74.7 189.75 74.7 189.25 74.75 187.75 74.8 186.25 74.85 Z"/>

<path fill="#FF8383" stroke="none" d="
M 80.9 194.65
Q 80.65 194.35 80.15 194.4 80.2 194.9 80.2 195.45 80.7 195.4 81.2 195.4 81.2 194.85 80.9 194.65 Z"/>

<path fill="#FF4747" stroke="none" d="
M 80.15 194.4
Q 79.65 194.45 79.1 194.45 79.15 194.95 79.4 195.2 79.7 195.45 80.2 195.45 80.2 194.9 80.15 194.4
M 75.45 81.5
Q 74.95 81.55 74.45 81.55 74.45 82.05 74.45 82.55 74.95 82.5 75.45 82.5 75.45 82 75.45 81.5
M 105.35 78.25
Q 107.85 78.15 110.3 78.05 110.8 78 111.3 78 111.25 77.5 111.25 77 110.75 77 110.25 77.05 107.8 77.15 105.25 77.2 105.25 77.75 105.35 78.25 Z"/>

<path fill="#FFB0B0" stroke="none" d="
M 75.8 192.85
Q 75.55 192.55 75.05 192.65 75.05 193.15 75.3 193.35 75.6 193.6 76.1 193.6 76.05 193.1 75.8 192.85
M 227.15 120.15
Q 227.15 120.65 227.45 120.95 227.7 121.15 228.2 121.15 228.15 120.65 228.15 120.15 227.65 120.15 227.15 120.15 Z"/>

<path fill="#FF7777" stroke="none" d="
M 73.3 192.4
Q 73.6 192.7 74.05 192.65 74.05 192.1 73.8 191.9 73.55 191.7 73 191.7 73.1 192.2 73.3 192.4
M 139.5 153.85
Q 139 153.85 138.5 153.9 138.5 154.45 138.55 154.95 139.05 154.9 139.25 154.65 139.5 154.35 139.5 153.85
M 137.75 117.15
Q 137.45 116.95 136.95 116.95 136.95 117.45 137.25 117.65 137.5 117.95 138 117.9 137.95 117.4 137.75 117.15 Z"/>

<path fill="#FF3434" stroke="none" d="
M 70.75 190
Q 70.45 189.75 69.95 189.8 69.95 190.3 70.25 190.55 70.5 190.8 71 190.8 70.95 190.3 70.75 190
M 213.4 78.75
Q 213.4 78.25 213.1 78 212.9 77.8 212.4 77.8 212.4 78.3 212.4 78.8 212.9 78.8 213.4 78.75 Z"/>

<path fill="#FF3838" stroke="none" d="
M 69.65 189.05
Q 69.4 188.85 68.9 188.85 68.95 189.3 69.15 189.6 69.45 189.85 69.95 189.8 69.95 189.3 69.65 189.05
M 65.7 184
Q 65.65 183.5 65.65 183 65.15 183 64.65 183.05 64.65 183.55 64.9 183.75 65.2 184 65.7 184
M 227.2 169.25
Q 227.2 169.75 227.25 170.25 227.8 170.25 228 169.95 228.2 169.7 228.2 169.2 227.7 169.25 227.2 169.25 Z"/>

<path fill="#FF8D8D" stroke="none" d="
M 67.05 186.7
Q 67.35 186.95 67.85 186.9 67.75 186.4 67.55 186.2 67.25 185.95 66.75 185.95 66.75 186.45 67.05 186.7 Z"/>

<path fill="#FF3737" stroke="none" d="
M 66.5 185.25
Q 66.2 184.95 65.7 185 65.75 185.5 66 185.75 66.25 185.95 66.75 185.95 66.75 185.45 66.5 185.25
M 60.25 101.15
Q 59.75 101.15 59.25 101.15 59.25 101.7 59.25 102.2 59.75 102.2 60.25 102.2 60.25 101.7 60.25 101.15
M 128.75 160.35
Q 128.25 160.35 127.75 160.4 127.75 160.9 127.8 161.4 128.3 161.35 128.5 161.15 128.75 160.85 128.75 160.35
M 125.7 111.45
Q 125.7 111.95 125.75 112.45 126.25 112.4 126.8 112.4 126.75 111.9 126.5 111.65 126.2 111.4 125.7 111.45 Z"/>

<path fill="#FFA8A8" stroke="none" d="
M 65.35 182.25
Q 65.1 182 64.6 182.05 64.6 182.55 64.65 183.05 65.15 183 65.65 183 65.6 182.5 65.35 182.25 Z"/>

<path fill="#FF5454" stroke="none" d="
M 64.55 180.05
Q 64.05 180.1 63.5 180.1 63.55 180.55 63.8 180.8 64.05 181.05 64.55 181.05 64.55 180.55 64.55 180.05
M 60.1 97.15
Q 60.1 97.65 60.1 98.15 60.6 98.1 61.1 98.1 61.1 97.6 61.05 97.1 60.55 97.1 60.1 97.15 Z"/>

<path fill="#FF3636" stroke="none" d="
M 62.7 176.9
Q 62.9 177.1 63.35 177.1 63.35 176.6 63.35 176.1 62.85 176.1 62.4 176.1 62.4 176.6 62.7 176.9
M 66.45 87.6
Q 66.65 87.35 66.65 86.85 66.15 86.85 65.65 86.9 65.65 87.4 65.65 87.9 66.15 87.85 66.45 87.6 Z"/>

<path fill="#FF9393" stroke="none" d="
M 64.2 179.3
Q 64 179.05 63.5 179.1 63.45 179.6 63.5 180.1 64.05 180.1 64.55 180.05 64.5 179.55 64.2 179.3 Z"/>

<path fill="#FF9E9E" stroke="none" d="
M 63.05 174.3
Q 62.75 174.1 62.3 174.1 62.3 174.6 62.35 175.1 62.8 175.1 63.3 175.1 63.25 174.6 63.05 174.3
M 228.1 143.2
Q 228.2 145.15 228.25 147.15 228.3 147.65 228.3 148.15 228.8 148.15 229.3 148.15 229.3 147.65 229.25 147.15 229.2 145.15 229.1 143.15 228.6 143.15 228.1 143.2 Z"/>

<path fill="#FF6C6C" stroke="none" d="
M 63.35 176.1
Q 63.3 175.6 63.3 175.1 62.8 175.1 62.35 175.1 62.35 175.6 62.4 176.1 62.85 176.1 63.35 176.1 Z"/>

<path fill="#FF3F3F" stroke="none" d="
M 59.7 159.25
Q 59.7 159.75 59.95 160 60.2 160.2 60.7 160.2 60.7 159.7 60.7 159.2 60.2 159.2 59.7 159.25
M 222.55 87.65
Q 222.25 87.35 221.75 87.4 221.8 87.95 221.85 88.45 222.35 88.35 222.85 88.35 222.8 87.85 222.55 87.65 Z"/>

<path fill="#FF6666" stroke="none" d="
M 60.55 155.15
Q 60 155.2 59.5 155.25 59.6 156.75 59.65 158.25 59.65 158.75 59.7 159.25 60.2 159.2 60.7 159.2 60.65 158.7 60.65 158.2 60.6 156.7 60.55 155.15
M 159 141.05
Q 159.05 141.55 159.05 142.1 159.55 142.1 159.75 141.8 160.05 141.5 160 141 159.5 141.05 159 141.05
M 158.45 128.1
Q 158.5 128.6 158.7 128.8 159 129.05 159.5 129.05 159.5 128.55 159.2 128.3 158.95 128.05 158.45 128.1
M 173.25 75.45
Q 173.7 75.4 174.2 75.4 174.2 74.9 174.15 74.4 173.65 74.4 173.2 74.45 170.25 74.55 167.2 74.65 167.2 75.15 167.25 75.65 170.25 75.55 173.25 75.45 Z"/>

<path fill="#FF9F9F" stroke="none" d="
M 59.3 150.25
Q 59.35 152.25 59.45 154.2 59.45 154.75 59.5 155.25 60 155.2 60.55 155.15 60.5 154.65 60.55 154.15 61 151 59.3 150.25 Z"/>

<path fill="#FF6060" stroke="none" d="
M 62.1 169.15
Q 62.1 168.65 62.05 168.15 61.55 168.15 61.05 168.15 61.05 169.15 61.5 170 61.65 170.15 62.15 170.15 62.15 169.65 62.1 169.15
M 59.5 108.15
Q 59 108.15 58.5 108.2 58.5 108.75 58.55 109.25 58.55 109.75 58.55 110.25 59.05 110.2 59.6 110.2 59.6 109.7 59.6 109.2 59.5 108.7 59.5 108.15
M 228 163.2
Q 228.45 162.7 228.75 162.1 228.9 161.7 228.9 161.2 228.4 161.2 227.9 161.25 227.9 161.75 227.95 162.25 227.95 162.75 228 163.2
M 193.25 75.6
Q 193.25 75.1 193.2 74.6 192.7 74.6 192.25 74.6 191.25 74.65 190.25 74.7 190.3 75.2 190.3 75.7 191.3 75.65 192.3 75.6 192.75 75.6 193.25 75.6 Z"/>

<path fill="#FF9999" stroke="none" d="
M 62.05 168.15
Q 62 167.65 61.85 167.2 61.45 166.65 60.95 166.2 60.95 166.7 61 167.15 61 167.65 61.05 168.15 61.55 168.15 62.05 168.15
M 227.35 172.25
Q 226.8 172.25 226.3 172.3 226.35 172.75 226.4 173.25 226.9 173.2 227.4 173.2 227.4 172.7 227.35 172.25
M 214.15 78.95
Q 213.9 78.75 213.4 78.75 213.45 79.25 213.65 79.45 213.95 79.75 214.45 79.7 214.45 79.2 214.15 78.95
M 167.25 75.65
Q 167.2 75.15 167.2 74.65 166.7 74.7 166.2 74.7 161.75 74.95 157.2 75.1 160.55 76.7 166.25 75.75 166.75 75.7 167.25 75.65
M 133.65 157.1
Q 133.65 157.6 133.65 158.1 134.15 158.1 134.45 157.85 134.65 157.6 134.65 157.1 134.15 157.1 133.65 157.1
M 141.25 153.55
Q 141.5 153.3 141.45 152.8 140.95 152.85 140.45 152.85 140.5 153.35 140.5 153.8 141 153.8 141.25 153.55
M 140.05 118.85
Q 140.05 118.35 139.75 118.05 139.55 117.85 139.05 117.9 139.05 118.4 139.3 118.6 139.55 118.85 140.05 118.85
M 132.6 114.4
Q 132.3 114.2 131.8 114.2 131.8 114.7 132.1 114.9 132.4 115.2 132.9 115.15 132.8 114.65 132.6 114.4 Z"/>

<path fill="#FFC8C8" stroke="none" d="
M 58.55 133.3
Q 60.2 131.9 59.45 128.2 59.35 127.7 59.3 127.2 58.8 127.2 58.3 127.25 58.4 129.75 58.5 132.3 58.55 132.8 58.55 133.3 Z"/>

<path fill="#FF5858" stroke="none" d="
M 59.05 121.2
Q 59 119.7 58.95 118.2 58.45 118.25 57.95 118.25 58 119.75 58.05 121.25 58.05 121.75 58.1 122.25 58.6 122.25 59.1 122.2 59.05 121.7 59.05 121.2 Z"/>

<path fill="#FF9A9A" stroke="none" d="
M 59.4 111.1
Q 59.65 110.7 59.6 110.2 59.05 110.2 58.55 110.25 58.65 110.75 58.65 111.25 58.7 111.75 58.7 112.25 59.2 111.7 59.4 111.1
M 214.95 187.75
Q 214.45 187.8 213.95 187.8 214 188.3 214 188.8 214.5 188.8 215 188.75 215 188.25 214.95 187.75
M 226.5 104.2
Q 226.45 103.7 226.45 103.2 225.95 103.25 225.45 103.25 225.5 104.25 225.95 105.05 226 105.25 226.5 105.25 226.5 104.7 226.5 104.2
M 224 92.3
Q 223.95 91.8 223.95 91.3 223.45 91.3 222.95 91.35 222.95 91.85 223.2 92.05 223.5 92.3 224 92.3 Z"/>

<path fill="#FF8585" stroke="none" d="
M 59.3 103.2
Q 59.3 103.7 59.35 104.2 59.8 103.7 60.1 103.05 60.3 102.65 60.25 102.2 59.75 102.2 59.25 102.2 59.3 102.7 59.3 103.2
M 207.35 77
Q 207.35 76.5 207.3 76 206.8 76 206.3 76.05 206.35 76.55 206.55 76.8 206.85 77 207.35 77 Z"/>

<path fill="#FF9494" stroke="none" d="
M 60.9 98.9
Q 61.15 98.6 61.1 98.1 60.6 98.1 60.1 98.15 60.15 98.65 60.15 99.15 60.65 99.1 60.9 98.9
M 82.35 80.2
Q 81.85 80.2 81.4 80.25 81.4 80.75 81.4 81.3 82.4 81.2 83.2 80.8 83.4 80.65 83.35 80.15 82.85 80.15 82.35 80.2
M 227.1 119.2
Q 227.1 119.65 227.15 120.15 227.65 120.15 228.15 120.15 228.1 119.65 228.1 119.15 228.05 117.15 227.95 115.2 227.45 115.2 226.95 115.25 227.05 117.2 227.1 119.2
M 219.7 84.45
Q 219.7 84.95 220 85.25 220.2 85.45 220.7 85.45 220.7 84.95 220.45 84.7 220.2 84.45 219.7 84.45
M 200.3 75.25
Q 199.8 75.3 199.3 75.3 199.8 75.8 200.4 76.05 200.85 76.25 201.35 76.2 201.3 75.7 201.3 75.2 200.8 75.25 200.3 75.25 Z"/>

<path fill="#FFA9A9" stroke="none" d="
M 62 95.1
Q 61.5 95.15 61 95.15 61 95.65 61.05 96.15 61.55 96.15 61.75 95.85 62 95.6 62 95.1 Z"/>

<path fill="#FF3939" stroke="none" d="
M 61.95 94.05
Q 61.45 94.1 60.95 94.15 61 94.65 61 95.15 61.5 95.15 62 95.1 62 94.55 61.95 94.05
M 62.65 92.8
Q 62.9 92.55 62.9 92.05 62.4 92.05 61.9 92.05 61.9 92.55 61.9 93.05 62.4 93.05 62.65 92.8 Z"/>

<path fill="#FF9191" stroke="none" d="
M 62.85 91.05
Q 62.85 91.55 62.9 92.05 63.4 92 63.55 91.75 63.8 91.5 63.8 91 63.3 91 62.85 91.05
M 224.65 179.35
Q 224.15 179.35 223.65 179.4 223.65 179.9 223.7 180.4 224.2 180.35 224.4 180.15 224.65 179.85 224.65 179.35
M 217.9 185.65
Q 217.9 186.15 217.9 186.65 218.4 186.65 218.7 186.35 218.9 186.1 218.9 185.55 218.4 185.65 217.9 185.65
M 148.05 149.3
Q 148.3 149 148.3 148.5 147.8 148.55 147.3 148.55 147.3 149.05 147.35 149.55 147.85 149.55 148.05 149.3
M 154.9 145
Q 155.1 144.7 155.1 144.2 154.6 144.2 154.1 144.25 154.1 144.75 154.1 145.25 154.6 145.2 154.9 145
M 153.55 126
Q 153.85 126.25 154.35 126.25 154.35 125.75 154.1 125.5 153.8 125.25 153.3 125.3 153.35 125.8 153.55 126
M 146.15 121.6
Q 146.2 122.1 146.45 122.3 146.7 122.6 147.2 122.55 147.2 122.05 146.9 121.8 146.65 121.6 146.15 121.6 Z"/>

<path fill="#FF3A3A" stroke="none" d="
M 65.45 88.65
Q 65.7 88.35 65.65 87.9 65.15 87.9 64.65 87.9 64.7 88.4 64.7 88.95 65.2 88.95 65.45 88.65
M 224.1 95.3
Q 224.6 95.3 225.1 95.25 225.05 94.75 224.85 94.55 224.55 94.3 224.05 94.3 224.1 94.8 224.1 95.3
M 176.25 75.3
Q 176.75 75.25 177.25 75.25 177.25 74.8 177.1 74.75 175.7 74.35 174.15 74.4 174.2 74.9 174.2 75.4 175.25 75.35 176.25 75.3 Z"/>

<path fill="#FF8888" stroke="none" d="
M 69.35 85.5
Q 69.55 85.3 69.55 84.8 69.05 84.8 68.55 84.8 68.55 85.3 68.6 85.8 69.1 85.8 69.35 85.5
M 160.95 140
Q 161 140.5 161 141 161.5 140.95 161.7 140.75 161.95 140.45 161.9 139.95 161.45 139.95 160.95 140
M 161.25 129.2
Q 160.95 129 160.5 129 160.5 129.5 160.75 129.7 161 130 161.5 129.95 161.45 129.45 161.25 129.2 Z"/>

<path fill="#FF3232" stroke="none" d="
M 70.5 83.75
Q 70 83.75 69.5 83.8 69.55 84.3 69.55 84.8 70.05 84.75 70.55 84.75 70.55 84.25 70.5 83.75
M 215.75 188.5
Q 216 188.2 215.95 187.7 215.45 187.75 214.95 187.75 215 188.25 215 188.75 215.5 188.75 215.75 188.5
M 142.25 152.5
Q 142.45 152.3 142.4 151.8 141.9 151.8 141.4 151.8 141.45 152.3 141.45 152.8 141.95 152.8 142.25 152.5
M 141.05 119.8
Q 141.05 119.3 140.8 119.05 140.55 118.8 140.05 118.85 140.1 119.35 140.3 119.55 140.6 119.8 141.05 119.8 Z"/>

<path fill="#FF9B9B" stroke="none" d="
M 73.2 83.35
Q 73.5 83.1 73.45 82.6 72.95 82.6 72.4 82.6 72.5 83.1 72.5 83.6 73 83.6 73.2 83.35 Z"/>

<path fill="#FFB3B3" stroke="none" d="
M 71.3 84.45
Q 71.55 84.15 71.5 83.65 71 83.65 70.5 83.75 70.55 84.25 70.55 84.75 71.05 84.7 71.3 84.45
M 163.85 138.85
Q 163.35 138.9 162.9 138.9 162.9 139.4 162.9 139.9 163.4 139.9 163.7 139.6 163.9 139.35 163.85 138.85
M 163.25 130.1
Q 163 129.9 162.5 129.95 162.5 130.45 162.8 130.65 163 130.9 163.55 130.9 163.55 130.4 163.25 130.1 Z"/>

<path fill="#FF3333" stroke="none" d="
M 72.4 82.6
Q 71.9 82.65 71.45 82.65 71.5 83.15 71.5 83.65 72 83.65 72.5 83.6 72.5 83.1 72.4 82.6
M 193.2 74.6
Q 193.25 75.1 193.25 75.6 193.75 75.55 194.25 75.55 194.25 75.05 194 74.8 193.7 74.55 193.2 74.6 Z"/>

<path fill="#FF8484" stroke="none" d="
M 75.45 81.5
Q 75.45 82 75.45 82.5 75.95 82.5 76.2 82.2 76.45 81.95 76.4 81.45 75.9 81.5 75.45 81.5
M 211 188.9
Q 211.05 189.4 211.1 189.95 211.6 189.95 212.1 189.85 212.1 189.35 212.05 188.85 211.55 188.9 211 188.9 Z"/>

<path fill="#FF7E7E" stroke="none" d="
M 119.25 77.7
Q 119.25 77.2 119.25 76.65 118.75 76.65 118.25 76.75 114.8 76.85 111.25 77 111.25 77.5 111.3 78 114.8 77.85 118.25 77.75 118.75 77.7 119.25 77.7 Z"/>

<path fill="#FFA2A2" stroke="none" d="
M 119.25 76.65
Q 119.25 77.2 119.25 77.7 122.3 77.55 125.2 76.9 125.3 76.9 125.25 76.4 124.75 76.45 124.25 76.45 121.75 76.55 119.25 76.65
M 169.7 133.6
Q 169.75 134.1 169.75 134.6 169.8 135.1 169.8 135.6 170.3 135.6 170.35 135.4 171.3 133.4 169.7 133.6 Z"/>

<path fill="#FF5353" stroke="none" d="
M 81.4 81.3
Q 81.4 80.75 81.4 80.25 80.85 80.25 80.4 80.25 79.9 80.3 79.4 80.3 79.4 80.85 79.4 81.35 79.9 81.35 80.4 81.3 80.95 81.3 81.4 81.3
M 201.3 75.2
Q 201.3 75.7 201.35 76.2 201.8 76.2 202.3 76.2 202.8 76.15 203.3 76.15 203.25 75.65 203.05 75.55 202.25 75.2 201.3 75.2 Z"/>

<path fill="#FFAFAF" stroke="none" d="
M 95.3 78.65
Q 95.35 79.15 95.35 79.65 95.85 79.65 96.1 79.4 96.35 79.1 96.3 78.6 95.8 78.65 95.3 78.65 Z"/>

<path fill="#FF4B4B" stroke="none" d="
M 91.35 79.85
Q 91.35 79.35 91.3 78.85 90.8 78.85 90.3 78.9 89.35 78.95 88.3 78.95 88.35 79.45 88.35 79.95 89.4 79.95 90.35 79.9 90.85 79.85 91.35 79.85 Z"/>

<path fill="#FF8989" stroke="none" d="
M 91.3 78.85
Q 91.35 79.35 91.35 79.85 92.85 79.8 94.35 79.7 94.85 79.65 95.35 79.65 95.35 79.15 95.3 78.65 94.8 78.65 94.3 78.7 92.8 78.75 91.3 78.85 Z"/>

<path fill="#FF3C3C" stroke="none" d="
M 224.6 178.35
Q 224.6 178.85 224.65 179.35 225.15 179.35 225.35 179.1 225.6 178.8 225.6 178.3 225.1 178.35 224.6 178.35
M 228.45 152.2
Q 228.45 152.7 228.5 153.2 229.05 153.2 229.25 152.9 229.5 152.65 229.5 152.1 229 152.15 228.45 152.2
M 181 193.8
Q 181.2 193.7 181.2 193.2 180.7 193.2 180.2 193.25 179.7 193.25 179.2 193.25 179.2 193.75 179.2 194.25 180.2 194.25 181 193.8 Z"/>

<path fill="#FF5A5A" stroke="none" d="
M 226.45 174.3
Q 226.95 174.2 227.15 174 227.45 173.7 227.4 173.2 226.9 173.2 226.4 173.25 226.45 173.75 226.45 174.3
M 222.9 90.35
Q 222.95 90.85 222.95 91.35 223.45 91.3 223.95 91.3 223.9 90.8 223.65 90.55 223.4 90.35 222.9 90.35 Z"/>

<path fill="#FF3E3E" stroke="none" d="
M 226.5 176.3
Q 226 176.3 225.55 176.3 225.55 176.8 225.55 177.3 226.05 177.3 226.3 177 226.55 176.8 226.5 176.3 Z"/>

<path fill="#FFACAC" stroke="none" d="
M 225.55 176.3
Q 226 176.3 226.5 176.3 226.5 175.8 226.5 175.3 226 175.3 225.45 175.3 225.45 175.8 225.55 176.3 Z"/>

<path fill="#FFB2B2" stroke="none" d="
M 215.95 187.7
Q 216.45 187.7 216.75 187.4 216.95 187.2 216.9 186.7 216.4 186.7 215.9 186.75 215.95 187.2 215.95 187.7 Z"/>

<path fill="#FF9D9D" stroke="none" d="
M 206.1 191.15
Q 206.1 190.65 206.05 190.15 205.55 190.15 205.05 190.2 204.1 190.25 203.05 190.25 203.15 190.75 203.15 191.25 204.15 191.2 205.1 191.2 205.6 191.15 206.1 191.15
M 210.4 77.9
Q 210.35 77.4 210.35 76.9 209.85 76.9 209.35 76.9 209.35 77.4 209.65 77.65 209.9 77.9 210.4 77.9
M 125.75 112.45
Q 125.7 111.95 125.7 111.45 125.2 111.45 124.7 111.45 125.75 136.45 127.3 161.4
L 127.8 161.4
Q 127.75 160.9 127.75 160.4 127.75 159.9 127.7 159.4 126.75 135.95 125.75 112.45 Z"/>

<path fill="#FF4949" stroke="none" d="
M 212.05 188.85
Q 212.1 189.35 212.1 189.85 212.6 189.85 212.8 189.6 213.1 189.35 213.05 188.85 212.55 188.85 212.05 188.85
M 208.35 76.95
Q 208.35 76.45 208.05 76.2 207.8 76 207.3 76 207.35 76.5 207.35 77 207.85 76.95 208.35 76.95 Z"/>

<path fill="#FF3B3B" stroke="none" d="
M 221.85 183.45
Q 221.3 183.45 220.8 183.5 220.8 184 220.85 184.5 221.35 184.45 221.6 184.25 221.85 183.95 221.85 183.45
M 221.85 183.45
Q 222.3 183.45 222.5 183.15 222.8 182.9 222.75 182.4 222.25 182.45 221.75 182.45 221.8 182.95 221.85 183.45 Z"/>

<path fill="#FFA0A0" stroke="none" d="
M 227.15 167.25
Q 227.15 167.75 227.15 168.25 227.65 168.25 228.15 168.2 228.15 167.7 228.15 167.15 227.65 167.2 227.15 167.25 Z"/>

<path fill="#FF6D6D" stroke="none" d="
M 227.15 168.25
Q 227.2 168.75 227.2 169.25 227.7 169.25 228.2 169.2 228.2 168.7 228.15 168.2 227.65 168.25 227.15 168.25 Z"/>

<path fill="#FF6565" stroke="none" d="
M 172.2 193.6
Q 172.2 194.1 172.25 194.6 175.25 194.4 178.2 194.3 178.75 194.3 179.2 194.25 179.2 193.75 179.2 193.25 178.7 193.3 178.15 193.3 175.2 193.4 172.2 193.6 Z"/>

<path fill="#FF6464" stroke="none" d="
M 229.3 148.15
Q 228.8 148.15 228.3 148.15 228.35 149.65 228.4 151.15 228.45 151.65 228.45 152.2 229 152.15 229.5 152.1 229.45 151.6 229.4 151.1 229.35 149.65 229.3 148.15 Z"/>

<path fill="#FF5555" stroke="none" d="
M 227.95 115.2
Q 227.95 114.7 228 114.15 228.45 111.45 226.8 111.2 226.85 112.7 226.9 114.25 226.95 114.75 226.95 115.25 227.45 115.2 227.95 115.2
M 130.7 159.3
Q 130.2 159.3 129.7 159.3 129.75 159.8 129.75 160.3 130.25 160.3 130.5 160 130.75 159.8 130.7 159.3
M 136.55 155
Q 136.55 155.5 136.6 156 137.1 156 137.3 155.7 137.55 155.45 137.55 154.95 137.05 155 136.55 155
M 144.2 151.45
Q 144.35 151.2 144.35 150.7 143.9 150.75 143.4 150.75 143.4 151.25 143.4 151.75 143.9 151.75 144.2 151.45
M 135.95 117
Q 135.95 116.55 135.7 116.3 135.4 116.05 134.9 116.1 134.95 116.6 135.15 116.8 135.45 117 135.95 117
M 128.5 112.55
Q 128.3 112.35 127.8 112.35 127.8 112.85 128.05 113.05 128.3 113.35 128.8 113.3 128.8 112.8 128.5 112.55
M 142.05 119.75
Q 142.05 120.25 142.35 120.45 142.6 120.75 143.1 120.7 143.05 120.2 142.85 119.95 142.55 119.75 142.05 119.75 Z"/>

<path fill="#FF6161" stroke="none" d="
M 226.2 102.35
Q 225.9 101.75 225.35 101.25 225.4 101.75 225.4 102.25 225.45 102.75 225.45 103.25 225.95 103.25 226.45 103.2 226.45 102.7 226.2 102.35 Z"/>

<path fill="#FF8787" stroke="none" d="
M 225.1 95.25
Q 224.6 95.3 224.1 95.3 224.15 96.3 224.6 97.1 224.7 97.35 225.2 97.3 225.15 96.75 225.15 96.25 225.1 95.75 225.1 95.25 Z"/>

<path fill="#FFADAD" stroke="none" d="
M 221.85 88.45
Q 221.85 88.95 222.1 89.1 222.35 89.35 222.85 89.35 222.85 88.9 222.85 88.35 222.35 88.35 221.85 88.45 Z"/>

<path fill="#FFB4B4" stroke="none" d="
M 212.4 77.8
Q 211.85 77.8 211.35 77.85 211.4 78.35 211.65 78.55 211.9 78.8 212.4 78.8 212.4 78.3 212.4 77.8
M 156.1 144.15
Q 156.6 144.15 156.85 143.85 157.1 143.65 157.1 143.15 156.55 143.15 156.05 143.15 156.05 143.65 156.1 144.15
M 156.15 126.4
Q 155.85 126.2 155.35 126.2 155.35 126.7 155.65 126.9 155.9 127.2 156.4 127.15 156.35 126.65 156.15 126.4 Z"/>

<path fill="#FF3535" stroke="none" d="
M 211.15 77.05
Q 210.85 76.85 210.35 76.9 210.35 77.4 210.4 77.9 210.9 77.85 211.35 77.85 211.3 77.35 211.15 77.05
M 135.4 156.8
Q 135.6 156.55 135.55 156.05 135.1 156.05 134.6 156.1 134.6 156.6 134.65 157.1 135.15 157.05 135.4 156.8
M 132.9 115.15
Q 132.9 115.65 133.15 115.85 133.4 116.15 133.9 116.1 133.9 115.6 133.6 115.35 133.4 115.15 132.9 115.15 Z"/>

<path fill="#FF3D3D" stroke="none" d="
M 220.7 85.45
Q 220.75 85.95 221 86.2 221.25 86.4 221.7 86.4 221.7 85.9 221.45 85.7 221.2 85.4 220.7 85.45
M 218.6 82.5
Q 218.6 82 218.3 81.75 218.05 81.55 217.6 81.55 217.6 82.05 217.85 82.25 218.1 82.55 218.6 82.5
M 216.8 81.3
Q 217.05 81.55 217.6 81.55 217.5 81.05 217.25 80.8 217 80.55 216.5 80.6 216.5 81.1 216.8 81.3 Z"/>

<path fill="#FFFEFE" stroke="none" d="
M 174.2 75.4
Q 173.7 75.4 173.25 75.45 170.25 75.55 167.25 75.65 166.75 75.7 166.25 75.75 160.55 76.7 157.2 75.1 156.7 75.1 156.2 75.15 140.75 75.75 125.25 76.4 125.3 76.9 125.2 76.9 122.3 77.55 119.25 77.7 118.75 77.7 118.25 77.75 114.8 77.85 111.3 78 110.8 78 110.3 78.05 107.85 78.15 105.35 78.25 104.85 78.3 104.3 78.3 100.3 78.45 96.3 78.6 96.35 79.1 96.1 79.4 95.85 79.65 95.35 79.65 94.85 79.65 94.35 79.7 92.85 79.8 91.35 79.85 90.85 79.85 90.35 79.9 89.4 79.95 88.35 79.95 87.85 80 87.35 80 85.35 80.1 83.35 80.15 83.4 80.65 83.2 80.8 82.4 81.2 81.4 81.3 80.95 81.3 80.4 81.3 79.9 81.35 79.4 81.35 78.9 81.35 78.4 81.4 77.4 81.45 76.4 81.45 76.45 81.95 76.2 82.2 75.95 82.5 75.45 82.5 74.95 82.5 74.45 82.55 73.95 82.55 73.45 82.6 73.5 83.1 73.2 83.35 73 83.6 72.5 83.6 72 83.65 71.5 83.65 71.55 84.15 71.3 84.45 71.05 84.7 70.55 84.75 70.05 84.75 69.55 84.8 69.55 85.3 69.35 85.5 69.1 85.8 68.6 85.8 68.1 85.85 67.75 86.05 67.1 86.35 66.65 86.85 66.65 87.35 66.45 87.6 66.15 87.85 65.65 87.9 65.7 88.35 65.45 88.65 65.2 88.95 64.7 88.95 64.75 89.45 64.45 89.7 64.25 90 63.75 90 63.75 90.5 63.8 91 63.8 91.5 63.55 91.75 63.4 92 62.9 92.05 62.9 92.55 62.65 92.8 62.4 93.05 61.9 93.05 61.95 93.55 61.95 94.05 62 94.55 62 95.1 62 95.6 61.75 95.85 61.55 96.15 61.05 96.15 61.05 96.6 61.05 97.1 61.1 97.6 61.1 98.1 61.15 98.6 60.9 98.9 60.65 99.1 60.15 99.15 60.15 99.65 60.2 100.15 60.2 100.65 60.25 101.15 60.25 101.7 60.25 102.2 60.3 102.65 60.1 103.05 59.8 103.7 59.35 104.2 59.4 105.7 59.45 107.15 59.5 107.65 59.5 108.15 59.5 108.7 59.6 109.2 59.6 109.7 59.6 110.2 59.65 110.7 59.4 111.1 59.2 111.7 58.7 112.25 58.8 114.75 58.9 117.2 58.9 117.7 58.95 118.2 59 119.7 59.05 121.2 59.05 121.7 59.1 122.2 59.15 124.25 59.3 126.2 59.3 126.7 59.3 127.2 59.35 127.7 59.45 128.2 60.2 131.9 58.55 133.3 58.9 141.25 59.25 149.25 59.3 149.75 59.3 150.25 61 151 60.55 154.15 60.5 154.65 60.55 155.15 60.6 156.7 60.65 158.2 60.65 158.7 60.7 159.2 60.7 159.7 60.7 160.2 60.8 162.7 60.9 165.2 60.95 165.7 60.95 166.2 61.45 166.65 61.85 167.2 62 167.65 62.05 168.15 62.1 168.65 62.1 169.15 62.15 169.65 62.15 170.15 62.2 171.65 62.25 173.1 62.3 173.6 62.3 174.1 62.75 174.1 63.05 174.3 63.25 174.6 63.3 175.1 63.3 175.6 63.35 176.1 63.35 176.6 63.35 177.1 63.4 177.6 63.4 178.1 63.4 178.6 63.5 179.1 64 179.05 64.2 179.3 64.5 179.55 64.55 180.05 64.55 180.55 64.55 181.05 64.6 181.55 64.6 182.05 65.1 182 65.35 182.25 65.6 182.5 65.65 183 65.65 183.5 65.7 184 65.7 184.5 65.7 185 66.2 184.95 66.5 185.25 66.75 185.45 66.75 185.95 67.25 185.95 67.55 186.2 67.75 186.4 67.85 186.9 68.35 187.4 68.65 188 68.9 188.35 68.9 188.85 69.4 188.85 69.65 189.05 69.95 189.3 69.95 189.8 70.45 189.75 70.75 190 70.95 190.3 71 190.8 71.5 191.25 72.15 191.5 72.5 191.75 73 191.7 73.55 191.7 73.8 191.9 74.05 192.1 74.05 192.65 74.55 192.65 75.05 192.65 75.55 192.55 75.8 192.85 76.05 193.1 76.1 193.6 76.6 193.55 77.1 193.5 77.6 193.5 77.85 193.75 78.1 194 78.1 194.5 78.6 194.5 79.1 194.45 79.65 194.45 80.15 194.4 80.65 194.35 80.9 194.65 81.2 194.85 81.2 195.4 82.2 195.3 83.2 195.25 83.65 195.25 84.15 195.25 84.65 195.2 85.15 195.2 85.65 195.2 86.15 195.15 87.7 195.1 89.05 195.5 89.2 195.55 89.2 196.05 91.2 195.95 93.15 195.85 93.65 195.8 94.2 195.8 95.2 195.75 96.2 195.7 96.7 195.7 97.2 195.7 99.2 195.55 101.1 196 101.25 196 101.3 196.5 105.75 196.3 110.25 196.15 110.75 196.1 111.25 196.1 113.2 196.05 115.2 195.9 115.7 195.9 116.2 195.85 119.75 195.7 123.2 195.6 123.7 195.6 124.2 195.55 127.25 195.45 130.15 195.8 130.2 195.8 130.25 196.35 145.75 195.65 161.2 195 161.7 195 162.2 194.95 162.2 194.45 162.15 193.95 166.7 193.8 171.15 193.6 171.7 193.6 172.2 193.6 175.2 193.4 178.15 193.3 178.7 193.3 179.2 193.25 179.7 193.25 180.2 193.25 180.7 193.2 181.2 193.2 185.7 193.05 190.15 192.8 190.65 192.8 191.15 192.75 191.15 192.25 191.15 191.75 192.65 191.7 194.1 191.65 194.65 191.65 195.15 191.6 196.1 191.6 197.1 191.55 197.6 191.5 198.1 191.5 200.1 191.4 202.1 191.3 202.65 191.3 203.15 191.25 203.15 190.75 203.05 190.25 204.1 190.25 205.05 190.2 205.55 190.15 206.05 190.15 206.55 190.15 207.05 190.1 207.55 190.1 208.05 190.05 209.05 190.05 210.05 190 210.6 190 211.1 189.95 211.05 189.4 211 188.9 211.55 188.9 212.05 188.85 212.55 188.85 213.05 188.85 213.5 188.8 214 188.8 214 188.3 213.95 187.8 214.45 187.8 214.95 187.75 215.45 187.75 215.95 187.7 215.95 187.2 215.9 186.75 216.4 186.7 216.9 186.7 217.4 186.65 217.9 186.65 217.9 186.15 217.9 185.65 218.4 185.65 218.9 185.55 219.35 185.05 220 184.75 220.35 184.5 220.85 184.5 220.8 184 220.8 183.5 221.3 183.45 221.85 183.45 221.8 182.95 221.75 182.45 222.25 182.45 222.75 182.4 222.75 181.95 222.65 181.45 223.2 181.45 223.45 181.15 223.7 180.95 223.7 180.4 223.65 179.9 223.65 179.4 224.15 179.35 224.65 179.35 224.6 178.85 224.6 178.35 225.1 178.35 225.6 178.3 225.6 177.8 225.55 177.3 225.55 176.8 225.55 176.3 225.45 175.8 225.45 175.3 226 175.3 226.5 175.3 226.45 174.8 226.45 174.3 226.45 173.75 226.4 173.25 226.35 172.75 226.3 172.3 226.8 172.25 227.35 172.25 227.35 171.75 227.3 171.25 227.25 170.75 227.25 170.25 227.2 169.75 227.2 169.25 227.2 168.75 227.15 168.25 227.15 167.75 227.15 167.25 227.65 167.2 228.15 167.15 228.1 166.65 228.1 166.15 228.05 164.7 228 163.2 227.95 162.75 227.95 162.25 227.9 161.75 227.9 161.25 227.9 160.75 227.85 160.25 227.85 159.75 227.8 159.25 228.3 159.15 228.8 159.15 228.8 158.65 228.8 158.15 228.7 155.65 228.5 153.2 228.45 152.7 228.45 152.2 228.45 151.65 228.4 151.15 228.35 149.65 228.3 148.15 228.3 147.65 228.25 147.15 228.2 145.15 228.1 143.2 228.6 143.15 229.1 143.15 229.1 142.65 229.05 142.15 228.65 131.65 228.2 121.15 227.7 121.15 227.45 120.95 227.15 120.65 227.15 120.15 227.1 119.65 227.1 119.2 227.05 117.2 226.95 115.25 226.95 114.75 226.9 114.25 226.85 112.7 226.8 111.2 226.8 110.7 226.75 110.2 226.6 107.7 226.5 105.25 226 105.25 225.95 105.05 225.5 104.25 225.45 103.25 225.45 102.75 225.4 102.25 225.4 101.75 225.35 101.25 225.35 100.75 225.35 100.25 225.3 98.75 225.2 97.3 224.7 97.35 224.6 97.1 224.15 96.3 224.1 95.3 224.1 94.8 224.05 94.3 224.05 93.8 224 93.3 224 92.8 224 92.3 223.5 92.3 223.2 92.05 222.95 91.85 222.95 91.35 222.95 90.85 222.9 90.35 222.9 89.85 222.85 89.35 222.35 89.35 222.1 89.1 221.85 88.95 221.85 88.45 221.8 87.95 221.75 87.4 221.75 86.9 221.7 86.4 221.25 86.4 221 86.2 220.75 85.95 220.7 85.45 220.2 85.45 220 85.25 219.7 84.95 219.7 84.45 219.65 83.95 219.45 83.55 219.15 83 218.6 82.5 218.1 82.55 217.85 82.25 217.6 82.05 217.6 81.55 217.05 81.55 216.8 81.3 216.5 81.1 216.5 80.6 216 80.6 215.6 80.45 214.95 80.2 214.45 79.7 213.95 79.75 213.65 79.45 213.45 79.25 213.4 78.75 212.9 78.8 212.4 78.8 211.9 78.8 211.65 78.55 211.4 78.35 211.35 77.85 210.9 77.85 210.4 77.9 209.9 77.9 209.65 77.65 209.35 77.4 209.35 76.9 208.85 76.95 208.35 76.95 207.85 76.95 207.35 77 206.85 77 206.55 76.8 206.35 76.55 206.3 76.05 205.8 76.05 205.3 76.05 204.25 76.1 203.3 76.15 202.8 76.15 202.3 76.2 201.8 76.2 201.35 76.2 200.85 76.25 200.4 76.05 199.8 75.8 199.3 75.3 198.8 75.3 198.3 75.35 196.25 75.4 194.25 75.55 193.75 75.55 193.25 75.6 192.75 75.6 192.3 75.6 191.3 75.65 190.3 75.7 189.75 75.7 189.35 75.85 186.65 76.55 186.25 74.85 185.75 74.85 185.25 74.9 181.25 75.05 177.25 75.25 176.75 75.25 176.25 75.3 175.25 75.35 174.2 75.4
M 165.6 131.8
Q 166.1 131.8 166.35 132 166.6 132.2 166.65 132.7 167.15 132.7 167.65 132.7 168.15 132.65 168.4 132.9 168.65 133.15 168.65 133.65 169.15 133.6 169.7 133.6 171.3 133.4 170.35 135.4 170.3 135.6 169.8 135.6 169.3 135.6 168.8 135.65 168.8 136.15 168.55 136.4 168.35 136.65 167.8 136.65 167.3 136.7 166.8 136.7 166.8 137.2 166.6 137.5 166.35 137.8 165.85 137.8 165.35 137.8 164.85 137.85 164.85 138.35 164.65 138.55 164.35 138.85 163.85 138.85 163.9 139.35 163.7 139.6 163.4 139.9 162.9 139.9 162.4 139.95 161.9 139.95 161.95 140.45 161.7 140.75 161.5 140.95 161 141 160.5 141 160 141 160.05 141.5 159.75 141.8 159.55 142.1 159.05 142.1 158.55 142.15 158.05 142.15 158.05 142.6 157.8 142.85 157.6 143.1 157.1 143.15 157.1 143.65 156.85 143.85 156.6 144.15 156.1 144.15 155.6 144.2 155.1 144.2 155.1 144.7 154.9 145 154.6 145.2 154.1 145.25 153.6 145.25 153.1 145.3 153.15 145.8 153 146.05 152.7 146.35 152.2 146.35 151.7 146.4 151.2 146.4 151.25 146.9 150.95 147.15 150.75 147.4 150.25 147.45 150.25 147.95 150 148.15 149.8 148.45 149.3 148.45 148.8 148.5 148.3 148.5 148.3 149 148.05 149.3 147.85 149.55 147.35 149.55 146.8 149.55 146.3 149.6 146.35 150.1 146.1 150.35 145.85 150.6 145.35 150.65 144.85 150.7 144.35 150.7 144.35 151.2 144.2 151.45 143.9 151.75 143.4 151.75 142.9 151.75 142.4 151.8 142.45 152.3 142.25 152.5 141.95 152.8 141.45 152.8 141.5 153.3 141.25 153.55 141 153.8 140.5 153.8 140 153.85 139.5 153.85 139.5 154.35 139.25 154.65 139.05 154.9 138.55 154.95 138.05 154.95 137.55 154.95 137.55 155.45 137.3 155.7 137.1 156 136.6 156 136.05 156 135.55 156.05 135.6 156.55 135.4 156.8 135.15 157.05 134.65 157.1 134.65 157.6 134.45 157.85 134.15 158.1 133.65 158.1 133.15 158.15 132.65 158.15 132.7 158.65 132.45 158.95 132.2 159.2 131.7 159.25 131.2 159.25 130.7 159.3 130.75 159.8 130.5 160 130.25 160.3 129.75 160.3 129.25 160.35 128.75 160.35 128.75 160.85 128.5 161.15 128.3 161.35 127.8 161.4
L 127.3 161.4
Q 125.75 136.45 124.7 111.45 125.2 111.45 125.7 111.45 126.2 111.4 126.5 111.65 126.75 111.9 126.8 112.4 127.3 112.35 127.8 112.35 128.3 112.35 128.5 112.55 128.8 112.8 128.8 113.3 129.3 113.3 129.8 113.3 130.3 113.25 130.6 113.45 130.85 113.75 130.85 114.25 131.3 114.2 131.8 114.2 132.3 114.2 132.6 114.4 132.8 114.65 132.9 115.15 133.4 115.15 133.6 115.35 133.9 115.6 133.9 116.1 134.4 116.1 134.9 116.1 135.4 116.05 135.7 116.3 135.95 116.55 135.95 117 136.45 116.95 136.95 116.95 137.45 116.95 137.75 117.15 137.95 117.4 138 117.9 138.5 117.9 139.05 117.9 139.55 117.85 139.75 118.05 140.05 118.35 140.05 118.85 140.55 118.8 140.8 119.05 141.05 119.3 141.05 119.8 141.55 119.8 142.05 119.75 142.55 119.75 142.85 119.95 143.05 120.2 143.1 120.7 143.6 120.7 144.1 120.7 144.6 120.65 144.85 120.9 145.15 121.15 145.2 121.65 145.65 121.6 146.15 121.6 146.65 121.6 146.9 121.8 147.2 122.05 147.2 122.55 147.7 122.55 148.2 122.55 148.7 122.5 149 122.7 149.2 123 149.25 123.5 149.75 123.45 150.05 123.7 150.25 123.95 150.3 124.45 150.8 124.45 151.3 124.4 151.8 124.4 152 124.55 152.3 124.8 152.3 125.3 152.8 125.3 153.3 125.3 153.8 125.25 154.1 125.5 154.35 125.75 154.35 126.25 154.85 126.2 155.35 126.2 155.85 126.2 156.15 126.4 156.35 126.65 156.4 127.15 156.9 127.15 157.15 127.35 157.4 127.6 157.45 128.1 157.95 128.1 158.45 128.1 158.95 128.05 159.2 128.3 159.5 128.55 159.5 129.05 160 129 160.5 129 160.95 129 161.25 129.2 161.45 129.45 161.5 129.95 162 129.95 162.5 129.95 163 129.9 163.25 130.1 163.55 130.4 163.55 130.9 164.05 130.85 164.3 131.1 164.6 131.35 164.6 131.85 165.1 131.85 165.6 131.8 Z"/>

<path fill="#FF8282" stroke="none" d="
M 132.45 158.95
Q 132.7 158.65 132.65 158.15 132.15 158.15 131.65 158.2 131.7 158.7 131.7 159.25 132.2 159.2 132.45 158.95
M 130.1 114
Q 130.35 114.25 130.85 114.25 130.85 113.75 130.6 113.45 130.3 113.25 129.8 113.3 129.85 113.8 130.1 114 Z"/>

<path fill="#FF6F6F" stroke="none" d="
M 146.3 149.6
Q 145.8 149.6 145.3 149.6 145.3 150.15 145.35 150.65 145.85 150.6 146.1 150.35 146.35 150.1 146.3 149.6
M 153.1 145.3
Q 152.65 145.3 152.15 145.3 152.2 145.8 152.2 146.35 152.7 146.35 153 146.05 153.15 145.8 153.1 145.3
M 152.3 125.3
Q 152.3 124.8 152 124.55 151.8 124.4 151.3 124.4 151.3 124.85 151.55 125.05 151.8 125.35 152.3 125.3
M 145.2 121.65
Q 145.15 121.15 144.85 120.9 144.6 120.65 144.1 120.7 144.1 121.2 144.4 121.4 144.65 121.65 145.2 121.65 Z"/>

<path fill="#FF4444" stroke="none" d="
M 158.05 142.15
Q 157.5 142.15 157 142.2 157 142.65 157.1 143.15 157.6 143.1 157.8 142.85 158.05 142.6 158.05 142.15
M 150.95 147.15
Q 151.25 146.9 151.2 146.4 150.7 146.4 150.2 146.45 150.25 146.95 150.25 147.45 150.75 147.4 150.95 147.15
M 157.45 128.1
Q 157.4 127.6 157.15 127.35 156.9 127.15 156.4 127.15 156.4 127.65 156.7 127.9 156.95 128.15 157.45 128.1
M 150.05 123.7
Q 149.75 123.45 149.25 123.5 149.25 124 149.55 124.2 149.8 124.45 150.3 124.45 150.25 123.95 150.05 123.7 Z"/>

<path fill="#FFB6B6" stroke="none" d="
M 149.3 148.45
Q 149.8 148.45 150 148.15 150.25 147.95 150.25 147.45 149.75 147.45 149.25 147.5 149.3 148 149.3 148.45
M 148.5 123.25
Q 148.75 123.5 149.25 123.5 149.2 123 149 122.7 148.7 122.5 148.2 122.55 148.25 123 148.5 123.25 Z"/>

<path fill="#FF4343" stroke="none" d="
M 164.65 138.55
Q 164.85 138.35 164.85 137.85 164.35 137.85 163.85 137.85 163.85 138.35 163.85 138.85 164.35 138.85 164.65 138.55
M 164.3 131.1
Q 164.05 130.85 163.55 130.9 163.6 131.4 163.8 131.6 164.1 131.85 164.6 131.85 164.6 131.35 164.3 131.1 Z"/>

<path fill="#FF8080" stroke="none" d="
M 168.8 135.65
Q 168.25 135.65 167.75 135.7 167.75 136.2 167.8 136.65 168.35 136.65 168.55 136.4 168.8 136.15 168.8 135.65
M 168.4 132.9
Q 168.15 132.65 167.65 132.7 167.65 133.2 167.95 133.4 168.15 133.65 168.65 133.65 168.65 133.15 168.4 132.9 Z"/>
</g>
</g>
</g>
</g>

<g id="Layer_27" transform="matrix( 1, 0, 0, 1, 715,354.65) ">
<g transform="matrix( -1.2003631591796875, -0.973052978515625, -0.973052978515625, 1.2003631591796875, 439,-72.35) ">
<g>
<g>
<path fill="#FFF7C4" stroke="none" d="
M 8.85 159.9
Q 4.15 161.95 2.3 166.75 0.4 171.5 2.45 176.2 4.55 180.9 9.35 182.8 14.1 184.65 18.8 182.6 23.55 180.5 25.4 175.7 27.25 170.95 25.2 166.25 23.1 161.5 18.3 159.65 13.55 157.8 8.85 159.9 Z"/>
</g>
</g>

<g transform="matrix( -0.502716064453125, -0.4075164794921875, -0.4075164794921875, 0.502716064453125, 191.2,215.25) ">
<path stroke="#FFDE74" stroke-width="8" stroke-linejoin="miter" stroke-linecap="butt" stroke-miterlimit="10" fill="none" d="
M 272.78561477661134 110.97655029296877
Q 269.1873191833496 103.882438659668 261.68544616699216 101.48110885620119 254.1235549926758 99.0311264038086 246.9807907104492 102.6894401550293 239.94669723510742 106.33638839721678 237.5453674316406 113.8382614135742 235.09538497924805 121.40015258789063 238.75369873046876 128.54291687011718 242.40064697265626 135.577010345459 249.90251998901368 137.9783401489258 257.51306381225584 140.3683044433594 264.60717544555666 136.77000885009764 271.6412689208984 133.12306060791016 273.9825805664062 125.57253494262696 276.4325630187988 118.01064376831053 272.78561477661134 110.97655029296877 Z"/>
</g>
</g>
</g>

<g id="Layer_25" transform="matrix( 1, 0, 0, 1, 715,354.65) ">
<g transform="matrix( -1.5437469482421875, -0.0682220458984375, -0.0682220458984375, 1.5437469482421875, 383.8,-211.2) ">
<g>
<g>
<path fill="#FFF7C4" stroke="none" d="
M 232.95 185.3
Q 237.75 183.45 239.85 178.7 241.9 174 240.05 169.25 238.15 164.45 233.45 162.4 228.75 160.3 224 162.15 219.2 164.05 217.15 168.75 215.05 173.45 216.9 178.2 218.75 183 223.5 185.1 228.2 187.15 232.95 185.3 Z"/>
</g>
</g>

<g transform="matrix( -0.6464996337890625, -0.028564453125, -0.028564453125, 0.6464996337890625, 242.05,147.5) ">
<path stroke="#FFDE74" stroke-width="8" stroke-linejoin="miter" stroke-linecap="butt" stroke-miterlimit="10" fill="none" d="
M 1.3410148620606037 48.30452194213865
Q 4.258828735351585 55.78058624267578 11.542603302001964 58.96398391723636 18.74919052124028 62.14397048950201 26.1446563720703 59.2999328613281 33.62072067260743 56.38211898803712 36.80411834716796 49.09834442138674 39.984104919433605 41.891757202148426 37.06287994384763 34.49288024902344 34.21884231567384 27.097414398193393 26.938478851318393 23.83682937622072 19.731891632080078 20.6568428039551 12.333014678955124 23.578067779541044 4.937548828124989 26.422105407714838 1.6769638061523438 33.70246887207031 -1.503022766113304 40.9090560913086 1.3410148620606037 48.30452194213865 Z"/>
</g>
</g>
</g>
</g>

<g id="KFC_Leg"/>

<g id="KFC_Arm"/>

<g id="button"/>

<g id="KFC_MOUTH"/>

<g id="KFC_Arm"/>

<g id="KFC_Eye"/>

<g id="KFC_Eye"/>
</svg>
